<svg xmlns="http://www.w3.org/2000/svg" viewBox="0 0 640 640"><!--Derived from Font Awesome's arrows-to-circle (v7.2.0) by rotating each of the four corner arrows 180° about its own bounding-box centre, so the arrows point AWAY from the central circle.  Rendered as a single <path> with rotated coordinates baked in (the project's mini SVG renderer does not apply <g transform> rotations).--><path d="M256 256C243.5 268.5 223.3 268.5 210.8 256L137.4 182.7L137.4 201.4C137.4 219.1 123.1 233.4 105.4 233.4C87.7 233.4 73.4 219.1 73.4 201.4L73.4 105.4C73.4 87.7 87.7 73.4 105.4 73.4L201.4 73.4C219.1 73.4 233.4 87.7 233.4 105.4C233.4 123.1 219.1 137.4 201.4 137.4L182.7 137.4L256.1 210.8C268.5 223.3 268.5 243.5 256 256zM264 320C264 289.1 289.1 264 320 264C350.9 264 376 289.1 376 320C376 350.9 350.9 376 320 376C289.1 376 264 350.9 264 320zM384 210.7L457.3 137.3L438.6 137.3C420.9 137.3 406.6 123 406.6 105.3C406.6 87.6 420.9 73.3 438.6 73.3L534.6 73.3C552.3 73.3 566.6 87.6 566.6 105.3L566.6 201.3C566.6 219 552.3 233.3 534.6 233.3C516.9 233.3 502.6 219 502.6 201.3L502.6 182.6L429.2 256C416.7 268.5 396.4 268.5 383.9 256C371.4 243.5 371.4 223.2 383.9 210.7zM429.3 384L502.6 457.3L502.6 438.6C502.6 420.9 516.9 406.6 534.6 406.6C552.3 406.6 566.6 420.9 566.6 438.6L566.6 534.6C566.6 552.3 552.3 566.6 534.6 566.6L438.6 566.6C420.9 566.6 406.6 552.3 406.6 534.6C406.6 516.9 420.9 502.6 438.6 502.6L457.3 502.6L383.9 429.2C371.4 416.7 371.4 396.4 383.9 383.9C396.4 371.4 416.7 371.4 429.2 383.9zM256 429.2L182.7 502.6L201.4 502.6C219.1 502.6 233.4 516.9 233.4 534.6C233.4 552.3 219.1 566.6 201.4 566.6L105.4 566.6C87.7 566.6 73.4 552.3 73.4 534.6L73.4 438.6C73.4 420.9 87.7 406.6 105.4 406.6C123.1 406.6 137.4 420.9 137.4 438.6L137.4 457.3L210.8 383.9C223.3 371.4 243.6 371.4 256.1 383.9C268.6 396.4 268.6 416.7 256.1 429.2z"/></svg>
