<?xml version="1.0" encoding="UTF-8"?>
<svg xmlns="http://www.w3.org/2000/svg" xmlns:xlink="http://www.w3.org/1999/xlink" width="3061" height="2411" viewBox="0 0 3061 2411">
<path fill-rule="nonzero" fill="rgb(0%, 0%, 0%)" fill-opacity="1" d="M 1177.359375 2.140625 C 1175.910156 3.109375 1165.308594 5.511719 1153.261719 7.191406 C 1127.710938 10.800781 1090.121094 20.898438 1064.089844 31.238281 C 919.484375 88.480469 818.023438 216.910156 796.816406 368.898438 C 794.886719 383.328125 792.238281 396.078125 791.273438 397.039062 C 790.066406 398.238281 680.894531 399.441406 548.34375 399.929688 C 307.824219 400.648438 307.339844 400.648438 288.0625 405.941406 C 223.230469 423.980469 177.441406 450.671875 130.203125 497.808594 C 80.800781 546.871094 47.78125 601.941406 24.40625 672.648438 C 16.210938 698.140625 4.882812 751.058594 4.882812 764.769531 C 4.882812 769.820312 3.917969 774.859375 2.472656 775.589844 C -0.660156 777.511719 -0.898438 2027.140625 2.234375 2035.078125 C 3.4375 2038.207031 5.605469 2050.953125 7.292969 2063.457031 C 10.910156 2091.835938 23.683594 2139.457031 35.492188 2168.074219 C 48.746094 2201.023438 59.351562 2220.984375 78.628906 2249.84375 C 135.988281 2336.183594 209.976562 2387.648438 305.894531 2407.851562 C 325.417969 2411.941406 2735.441406 2411.941406 2754.960938 2407.851562 C 2850.148438 2387.648438 2923.660156 2336.90625 2981.5 2251.289062 C 3018.128906 2196.933594 3045.609375 2125.746094 3053.558594 2063.457031 C 3055.25 2050.953125 3057.410156 2038.207031 3058.621094 2035.078125 C 3061.75 2027.140625 3061.511719 777.511719 3058.378906 775.589844 C 3057.171875 774.859375 3055.96875 769.820312 3055.96875 764.769531 C 3055.96875 750.339844 3044.398438 696.941406 3035.238281 668.808594 C 3023.910156 634.410156 2994.75 576.210938 2974.75 548.320312 C 2953.058594 517.769531 2908.71875 473.761719 2880.519531 454.761719 C 2833.519531 423.019531 2782.671875 404.5 2730.621094 399.691406 L 2710.128906 398 L 2708.929688 321.039062 C 2707.71875 246.730469 2707.480469 243.601562 2702.179688 232.78125 C 2692.539062 213.058594 2668.921875 195.738281 2642.648438 189.011719 C 2630.359375 185.640625 2601.199219 185.160156 2425.75 185.160156 C 2246.441406 185.160156 2221.378906 185.640625 2209.808594 189.011719 C 2183.300781 196.941406 2164.5 210.660156 2152.691406 230.621094 L 2146.191406 241.679688 L 2144.980469 319.839844 L 2143.78125 398 L 2088.339844 398 L 2086.660156 384.78125 C 2078.949219 325.609375 2066.660156 284.25 2042.308594 235.671875 C 1993.628906 137.78125 1903.019531 59.378906 1797.691406 24.03125 C 1774.320312 16.089844 1723.46875 4.789062 1711.179688 4.789062 C 1707.320312 4.789062 1703.46875 3.589844 1702.738281 2.378906 C 1700.808594 -0.5 1180.488281 -0.980469 1177.359375 2.140625 Z M 1709.011719 133.691406 C 1772.148438 144.519531 1827.339844 173.140625 1872.648438 218.589844 C 1923.5 269.339844 1952.660156 331.871094 1959.171875 405.21875 C 1960.609375 419.648438 1962.789062 450.671875 1964.230469 473.761719 C 1965.679688 496.851562 1967.359375 518.25 1967.839844 521.140625 L 1969.050781 526.671875 L 2347.179688 526.671875 C 2718.570312 526.671875 2725.308594 526.671875 2744.109375 531.480469 C 2822.679688 551.679688 2887.511719 622.148438 2916.429688 719.070312 C 2930.410156 765.480469 2929.441406 713.539062 2930.160156 1393.671875 C 2930.648438 1819.351562 2929.929688 2022.8125 2928.238281 2036.039062 C 2913.539062 2149.554688 2845.570312 2244.792969 2758.328125 2274.617188 C 2750.378906 2277.261719 2736.640625 2280.628906 2727.96875 2282.070312 C 2705.550781 2285.917969 355.300781 2285.917969 332.886719 2282.070312 C 278.660156 2273.171875 229.496094 2240.707031 191.179688 2188.515625 C 162.015625 2148.835938 139.605469 2090.394531 132.613281 2036.039062 C 130.929688 2022.8125 130.203125 1819.351562 130.6875 1393.671875 C 131.410156 816.46875 131.652344 769.328125 135.507812 752.738281 C 151.652344 682.03125 177.683594 631.050781 219.375 588.960938 C 246.125 562.019531 272.878906 545.191406 307.339844 533.640625 L 324.210938 527.871094 L 618.234375 526.671875 L 912.257812 525.46875 L 913.703125 512.238281 C 914.667969 505.03125 916.59375 479.050781 918.039062 454.519531 C 923.34375 368.660156 930.089844 338.359375 954.914062 290.980469 C 997.089844 209.449219 1075.171875 151.96875 1166.511719 134.660156 C 1187.480469 130.570312 1209.171875 130.328125 1437.878906 130.089844 C 1656.230469 129.851562 1689 130.328125 1709.011719 133.691406 Z M 1709.011719 133.691406 "/>
<path fill-rule="nonzero" fill="rgb(0%, 0%, 0%)" fill-opacity="1" d="M 1079.511719 434.558594 C 1068.179688 444.179688 1062.878906 457.410156 1062.878906 477.371094 C 1062.878906 497.328125 1068.179688 510.558594 1079.511719 520.179688 L 1087.460938 526.671875 L 1786.371094 526.671875 L 1795.53125 517.53125 C 1815.289062 497.808594 1815.289062 456.929688 1795.53125 437.199219 L 1786.371094 428.070312 L 1087.460938 428.070312 Z M 1079.511719 434.558594 "/>
<path fill-rule="nonzero" fill="rgb(0%, 0%, 0%)" fill-opacity="1" d="M 1372.570312 759.949219 C 1342.199219 763.800781 1307.980469 769.820312 1283.398438 775.828125 C 1101.441406 820.800781 944.550781 945.140625 859.234375 1112.289062 C 788.140625 1251.539062 770.066406 1409.78125 807.421875 1564.421875 C 836.824219 1686.113281 909.121094 1805.882812 1003.601562 1890.058594 C 1081.199219 1959.082031 1162.660156 2004.054688 1266.53125 2034.359375 C 1300.988281 2044.699219 1352.089844 2052.875 1401.011719 2056.484375 C 1506.089844 2064.179688 1621.289062 2042.054688 1719.851562 1994.914062 C 1856.019531 1930.222656 1967.121094 1820.074219 2028.339844 1688.761719 C 2035.808594 1673.367188 2042.558594 1658.457031 2044 1655.8125 C 2049.789062 1643.546875 2066.410156 1593.523438 2071.480469 1572.839844 C 2087.859375 1507.664062 2090.75 1483.132812 2090.75 1405.691406 C 2090.75 1346.53125 2090.03125 1334.511719 2085.210938 1305.890625 C 2062.800781 1174.820312 2008.570312 1063.21875 1920.128906 966.78125 C 1831.441406 869.621094 1707.320312 798.679688 1579.589844 771.738281 C 1529.699219 761.160156 1513.070312 759.46875 1450.890625 758.75 C 1417.160156 758.269531 1381.96875 758.75 1372.570312 759.949219 Z M 1500.300781 866.980469 C 1572.359375 875.628906 1619.839844 889.578125 1683.460938 921.328125 C 1775.519531 967.019531 1852.890625 1037.488281 1905.429688 1123.351562 C 2015.078125 1303 2012.191406 1526.90625 1897.949219 1702.710938 C 1831.679688 1804.921875 1728.050781 1885.007812 1613.089844 1923.007812 C 1558.140625 1941.285156 1518.859375 1948.019531 1456.921875 1949.703125 C 1387.03125 1951.625 1335.460938 1944.652344 1274.960938 1925.410156 C 1093.730469 1867.453125 952.746094 1715.695312 909.605469 1532.195312 C 889.359375 1445.855469 890.324219 1359.039062 912.496094 1271.019531 C 928.402344 1207.761719 965.035156 1132.730469 1006.96875 1077.410156 C 1026.011719 1052.640625 1071.558594 1005.980469 1097.828125 984.820312 C 1210.621094 893.910156 1360.039062 849.898438 1500.300781 866.980469 Z M 1500.300781 866.980469 "/>
<path fill-rule="nonzero" fill="rgb(0%, 0%, 0%)" fill-opacity="1" d="M 1393.058594 934.558594 C 1389.679688 935.039062 1377.390625 936.71875 1365.339844 938.160156 C 1255.679688 951.628906 1151.808594 1003.820312 1085.539062 1079.101562 C 1020.710938 1152.691406 977.085938 1260.191406 971.300781 1363.121094 C 969.855469 1391.019531 971.300781 1400.160156 984.554688 1405.929688 C 1003.109375 1413.628906 1019.5 1398.960938 1019.5 1374.429688 C 1019.5 1368.179688 1021.191406 1351.578125 1023.359375 1337.390625 C 1042.878906 1203.679688 1113.980469 1094.011719 1218.089844 1036.769531 C 1268.941406 1008.871094 1336.179688 989.628906 1399.558594 984.578125 C 1425.589844 982.660156 1434.988281 979.050781 1440.050781 969.191406 C 1445.589844 958.609375 1443.179688 947.058594 1433.789062 939.371094 C 1427.519531 934.070312 1424.140625 933.109375 1412.820312 933.359375 C 1405.351562 933.589844 1396.429688 934.070312 1393.058594 934.558594 Z M 1393.058594 934.558594 "/>
</svg>
