<?xml version="1.0" encoding="UTF-8"?>
<!DOCTYPE svg PUBLIC "-//W3C//DTD SVG 1.1//EN" "http://www.w3.org/Graphics/SVG/1.1/DTD/svg11.dtd">
<!-- Creator: CorelDRAW Home & Student X8 -->
<svg xmlns="http://www.w3.org/2000/svg" xml:space="preserve" width="2048px" height="2048px" version="1.1" shape-rendering="geometricPrecision" text-rendering="geometricPrecision" image-rendering="optimizeQuality" fill-rule="evenodd" clip-rule="evenodd"
viewBox="0 0 977 982"
 xmlns:xlink="http://www.w3.org/1999/xlink">
 <g id="Layer_x0020_1">
  <metadata id="CorelCorpID_0Corel-Layer"/>
  <path fill="black" d="M97 656l525 -525 47 47 -525 526 -33 -34c-22,67 -43,134 -64,201 35,7 55,33 46,69l212 -72 -28 -28 527 -527 43 43 -528 526c-99,33 -198,66 -296,99 -12,4 -26,-5 -22,-17l96 -308zm69 70l526 -526 90 91 -527 526 -89 -91zm564 -704l-88 88 226 225c29,-29 59,-59 88,-88 25,-25 29,-62 4,-86 -48,-48 -96,-96 -143,-143 -26,-27 -60,-22 -87,4z"/>
 </g>
</svg>
