<?xml version="1.0" encoding="UTF-8"?>
<!DOCTYPE svg PUBLIC "-//W3C//DTD SVG 1.1//EN" "http://www.w3.org/Graphics/SVG/1.1/DTD/svg11.dtd">
<!-- Creator: CorelDRAW Home & Student X8 -->
<svg xmlns="http://www.w3.org/2000/svg" xml:space="preserve" width="24px" height="24px" version="1.1" shape-rendering="geometricPrecision" text-rendering="geometricPrecision" image-rendering="optimizeQuality" fill-rule="evenodd" clip-rule="evenodd"
viewBox="0 0 5 5"
 xmlns:xlink="http://www.w3.org/1999/xlink">
 <g id="Layer_x0020_1">
  <metadata id="CorelCorpID_0Corel-Layer"/>
  <g id="_349986832">
   <rect fill="none" width="4.65176" height="4.65176"/>
   <g>
    <polygon fill="#2B2A29" fill-rule="nonzero" points="1,3 2,4 4,2 3,1 "/>
    <path fill="#2B2A29" fill-rule="nonzero" d="M1 4l0 0 0 0c0,0 0,0 0,0 -1,0 -1,0 -1,0 0,0 0,0 0,0l0 0c0,0 0,0 0,0 0,0 0,0 0,0l1 0c0,0 0,0 0,0l0 0c0,0 0,0 0,0l0 0 0 0 0 0z"/>
    <polygon fill="#FEFEFE" fill-rule="nonzero" points="1,3 1,3 3,1 3,1 "/>
    <polygon fill="#FEFEFE" fill-rule="nonzero" points="1,4 1,4 4,2 4,2 "/>
    <polygon fill="#2B2A29" fill-rule="nonzero" points="1,4 1,4 2,4 2,4 "/>
    <polygon fill="#2B2A29" fill-rule="nonzero" points="1,4 1,3 1,3 1,4 "/>
    <path fill="#2B2A29" fill-rule="nonzero" d="M4 1l0 1 -1 -1 0 0c0,-1 1,-1 1,0l0 0c0,0 0,0 0,0z"/>
   </g>
  </g>
 </g>
</svg>
