<svg xmlns="http://www.w3.org/2000/svg" viewBox="0 0 200 200" width="200" height="200" role="img" aria-label="PID autotune">
  <!-- Step setpoint signal -->
  <path d="M 12.00 188.00 L 34.71 188.00 L 34.71 78.06 L 188.00 78.06" fill="none" stroke="#1565C0" stroke-width="8"
        stroke-linejoin="round" stroke-linecap="round"/>
  <!-- Untuned response: 3 damped oscillations (red) -->
  <path d="M 34.71 188.00 L 35.02 187.92 L 35.32 187.68 L 35.63 187.29 L 35.94 186.74 L 36.24 186.04 L 36.55 185.20 L 36.86 184.20 L 37.16 183.07 L 37.47 181.80 L 37.78 180.39 L 38.08 178.85 L 38.39 177.19 L 38.70 175.40 L 39.00 173.49 L 39.31 171.47 L 39.61 169.33 L 39.92 167.09 L 40.23 164.75 L 40.53 162.31 L 40.84 159.78 L 41.15 157.16 L 41.45 154.46 L 41.76 151.68 L 42.07 148.82 L 42.37 145.90 L 42.68 142.92 L 42.99 139.88 L 43.29 136.78 L 43.60 133.64 L 43.91 130.45 L 44.21 127.23 L 44.52 123.98 L 44.83 120.70 L 45.13 117.40 L 45.44 114.08 L 45.75 110.74 L 46.05 107.41 L 46.36 104.06 L 46.67 100.73 L 46.97 97.40 L 47.28 94.08 L 47.59 90.78 L 47.89 87.50 L 48.20 84.25 L 48.51 81.03 L 48.81 77.84 L 49.12 74.69 L 49.43 71.59 L 49.73 68.53 L 50.04 65.52 L 50.35 62.57 L 50.65 59.67 L 50.96 56.84 L 51.27 54.07 L 51.57 51.38 L 51.88 48.75 L 52.18 46.20 L 52.49 43.72 L 52.80 41.32 L 53.10 39.01 L 53.41 36.78 L 53.72 34.64 L 54.02 32.59 L 54.33 30.63 L 54.64 28.76 L 54.94 26.98 L 55.25 25.30 L 55.56 23.72 L 55.86 22.24 L 56.17 20.85 L 56.48 19.56 L 56.78 18.38 L 57.09 17.29 L 57.40 16.31 L 57.70 15.43 L 58.01 14.65 L 58.32 13.97 L 58.62 13.39 L 58.93 12.91 L 59.24 12.54 L 59.54 12.26 L 59.85 12.08 L 60.16 12.00 L 60.46 12.02 L 60.77 12.13 L 61.08 12.33 L 61.38 12.63 L 61.69 13.02 L 62.00 13.50 L 62.30 14.07 L 62.61 14.72 L 62.92 15.46 L 63.22 16.28 L 63.53 17.17 L 63.83 18.15 L 64.14 19.20 L 64.45 20.32 L 64.75 21.52 L 65.06 22.78 L 65.37 24.10 L 65.67 25.49 L 65.98 26.94 L 66.29 28.44 L 66.59 30.00 L 66.90 31.61 L 67.21 33.26 L 67.51 34.96 L 67.82 36.70 L 68.13 38.49 L 68.43 40.30 L 68.74 42.15 L 69.05 44.03 L 69.35 45.94 L 69.66 47.87 L 69.97 49.82 L 70.27 51.78 L 70.58 53.76 L 70.89 55.75 L 71.19 57.76 L 71.50 59.76 L 71.81 61.77 L 72.11 63.77 L 72.42 65.78 L 72.73 67.77 L 73.03 69.76 L 73.34 71.74 L 73.65 73.70 L 73.95 75.64 L 74.26 77.56 L 74.57 79.46 L 74.87 81.34 L 75.18 83.18 L 75.48 85.00 L 75.79 86.79 L 76.10 88.54 L 76.40 90.25 L 76.71 91.93 L 77.02 93.57 L 77.32 95.16 L 77.63 96.71 L 77.94 98.21 L 78.24 99.67 L 78.55 101.07 L 78.86 102.43 L 79.16 103.74 L 79.47 104.99 L 79.78 106.18 L 80.08 107.33 L 80.39 108.41 L 80.70 109.44 L 81.00 110.41 L 81.31 111.32 L 81.62 112.18 L 81.92 112.97 L 82.23 113.70 L 82.54 114.37 L 82.84 114.98 L 83.15 115.53 L 83.46 116.02 L 83.76 116.45 L 84.07 116.82 L 84.38 117.13 L 84.68 117.37 L 84.99 117.56 L 85.30 117.69 L 85.60 117.76 L 85.91 117.76 L 86.22 117.72 L 86.52 117.61 L 86.83 117.45 L 87.13 117.24 L 87.44 116.96 L 87.75 116.64 L 88.05 116.27 L 88.36 115.84 L 88.67 115.36 L 88.97 114.84 L 89.28 114.27 L 89.59 113.65 L 89.89 112.99 L 90.20 112.29 L 90.51 111.54 L 90.81 110.76 L 91.12 109.94 L 91.43 109.08 L 91.73 108.19 L 92.04 107.26 L 92.35 106.31 L 92.65 105.32 L 92.96 104.31 L 93.27 103.27 L 93.57 102.21 L 93.88 101.12 L 94.19 100.02 L 94.49 98.89 L 94.80 97.75 L 95.11 96.60 L 95.41 95.43 L 95.72 94.25 L 96.03 93.06 L 96.33 91.87 L 96.64 90.67 L 96.95 89.46 L 97.25 88.26 L 97.56 87.05 L 97.87 85.85 L 98.17 84.65 L 98.48 83.45 L 98.79 82.26 L 99.09 81.08 L 99.40 79.91 L 99.70 78.75 L 100.01 77.60 L 100.32 76.47 L 100.62 75.35 L 100.93 74.25 L 101.24 73.18 L 101.54 72.12 L 101.85 71.08 L 102.16 70.06 L 102.46 69.07 L 102.77 68.11 L 103.08 67.17 L 103.38 66.25 L 103.69 65.37 L 104.00 64.51 L 104.30 63.69 L 104.61 62.89 L 104.92 62.13 L 105.22 61.40 L 105.53 60.70 L 105.84 60.04 L 106.14 59.41 L 106.45 58.81 L 106.76 58.25 L 107.06 57.73 L 107.37 57.24 L 107.68 56.79 L 107.98 56.37 L 108.29 55.99 L 108.60 55.65 L 108.90 55.34 L 109.21 55.07 L 109.52 54.84 L 109.82 54.64 L 110.13 54.48 L 110.44 54.36 L 110.74 54.27 L 111.05 54.22 L 111.35 54.20 L 111.66 54.22 L 111.97 54.27 L 112.27 54.36 L 112.58 54.48 L 112.89 54.63 L 113.19 54.81 L 113.50 55.03 L 113.81 55.27 L 114.11 55.55 L 114.42 55.85 L 114.73 56.19 L 115.03 56.55 L 115.34 56.94 L 115.65 57.35 L 115.95 57.79 L 116.26 58.25 L 116.57 58.74 L 116.87 59.25 L 117.18 59.78 L 117.49 60.33 L 117.79 60.90 L 118.10 61.48 L 118.41 62.09 L 118.71 62.70 L 119.02 63.34 L 119.33 63.99 L 119.63 64.65 L 119.94 65.32 L 120.25 66.00 L 120.55 66.69 L 120.86 67.39 L 121.17 68.10 L 121.47 68.81 L 121.78 69.53 L 122.09 70.25 L 122.39 70.97 L 122.70 71.69 L 123.00 72.42 L 123.31 73.14 L 123.62 73.87 L 123.92 74.59 L 124.23 75.30 L 124.54 76.01 L 124.84 76.72 L 125.15 77.42 L 125.46 78.11 L 125.76 78.80 L 126.07 79.47 L 126.38 80.13 L 126.68 80.79 L 126.99 81.43 L 127.30 82.05 L 127.60 82.67 L 127.91 83.27 L 128.22 83.86 L 128.52 84.43 L 128.83 84.98 L 129.14 85.52 L 129.44 86.04 L 129.75 86.54 L 130.06 87.02 L 130.36 87.49 L 130.67 87.93 L 130.98 88.36 L 131.28 88.76 L 131.59 89.15 L 131.90 89.51 L 132.20 89.86 L 132.51 90.18 L 132.82 90.48 L 133.12 90.76 L 133.43 91.02 L 133.74 91.25 L 134.04 91.47 L 134.35 91.66 L 134.65 91.83 L 134.96 91.97 L 135.27 92.10 L 135.57 92.20 L 135.88 92.29 L 136.19 92.35 L 136.49 92.38 L 136.80 92.40 L 137.11 92.40 L 137.41 92.37 L 137.72 92.33 L 138.03 92.26 L 138.33 92.18 L 138.64 92.08 L 138.95 91.95 L 139.25 91.81 L 139.56 91.65 L 139.87 91.47 L 140.17 91.28 L 140.48 91.07 L 140.79 90.84 L 141.09 90.60 L 141.40 90.34 L 141.71 90.06 L 142.01 89.77 L 142.32 89.47 L 142.63 89.16 L 142.93 88.83 L 143.24 88.50 L 143.55 88.15 L 143.85 87.79 L 144.16 87.42 L 144.47 87.04 L 144.77 86.65 L 145.08 86.26 L 145.39 85.86 L 145.69 85.45 L 146.00 85.04 L 146.31 84.62 L 146.61 84.19 L 146.92 83.77 L 147.22 83.34 L 147.53 82.91 L 147.84 82.47 L 148.14 82.04 L 148.45 81.60 L 148.76 81.16 L 149.06 80.73 L 149.37 80.30 L 149.68 79.86 L 149.98 79.44 L 150.29 79.01 L 150.60 78.59 L 150.90 78.17 L 151.21 77.76 L 151.52 77.35 L 151.82 76.95 L 152.13 76.56 L 152.44 76.17 L 152.74 75.79 L 153.05 75.42 L 153.36 75.05 L 153.66 74.70 L 153.97 74.35 L 154.28 74.02 L 154.58 73.69 L 154.89 73.37 L 155.20 73.07 L 155.50 72.77 L 155.81 72.49 L 156.12 72.22 L 156.42 71.96 L 156.73 71.71 L 157.04 71.48 L 157.34 71.25 L 157.65 71.04 L 157.96 70.84 L 158.26 70.66 L 158.57 70.49 L 158.87 70.33 L 159.18 70.18 L 159.49 70.05 L 159.79 69.93 L 160.10 69.82 L 160.41 69.73 L 160.71 69.65 L 161.02 69.58 L 161.33 69.53 L 161.63 69.49 L 161.94 69.46 L 162.25 69.45 L 162.55 69.45 L 162.86 69.46 L 163.17 69.48 L 163.47 69.51 L 163.78 69.56 L 164.09 69.62 L 164.39 69.69 L 164.70 69.77 L 165.01 69.86 L 165.31 69.97 L 165.62 70.08 L 165.93 70.20 L 166.23 70.34 L 166.54 70.48 L 166.85 70.63 L 167.15 70.80 L 167.46 70.97 L 167.77 71.14 L 168.07 71.33 L 168.38 71.52 L 168.69 71.73 L 168.99 71.93 L 169.30 72.15 L 169.61 72.37 L 169.91 72.59 L 170.22 72.82 L 170.52 73.06 L 170.83 73.30 L 171.14 73.54 L 171.44 73.79 L 171.75 74.04 L 172.06 74.29 L 172.36 74.55 L 172.67 74.81 L 172.98 75.07 L 173.28 75.33 L 173.59 75.59 L 173.90 75.85 L 174.20 76.11 L 174.51 76.37 L 174.82 76.63 L 175.12 76.89 L 175.43 77.15 L 175.74 77.41 L 176.04 77.66 L 176.35 77.91 L 176.66 78.16 L 176.96 78.41 L 177.27 78.65 L 177.58 78.89 L 177.88 79.12 L 178.19 79.35 L 178.50 79.58 L 178.80 79.80 L 179.11 80.01 L 179.42 80.22 L 179.72 80.43 L 180.03 80.63 L 180.34 80.82 L 180.64 81.00 L 180.95 81.18 L 181.26 81.36 L 181.56 81.52 L 181.87 81.68 L 182.17 81.83 L 182.48 81.98 L 182.79 82.11 L 183.09 82.24 L 183.40 82.36 L 183.71 82.48 L 184.01 82.58 L 184.32 82.68 L 184.63 82.77 L 184.93 82.85 L 185.24 82.93 L 185.55 82.99 L 185.85 83.05 L 186.16 83.10 L 186.47 83.15 L 186.77 83.18 L 187.08 83.21 L 187.39 83.23 L 187.69 83.24 L 188.00 83.24" fill="none" stroke="#E53935" stroke-width="8"
        stroke-linejoin="round" stroke-linecap="round"/>
</svg>
