<svg xmlns="http://www.w3.org/2000/svg" viewBox="0 0 24 24" width="24" height="24">
  <polyline points="2.00,12.00 2.25,9.53 2.50,7.31 2.75,5.69 3.00,5.01 3.25,5.48 3.50,7.16 3.75,9.85 4.00,13.09 4.25,16.19 4.50,18.38 4.75,18.97 5.00,17.60 5.25,14.48 5.50,10.44 5.75,6.82 6.00,5.04 6.25,6.03 6.50,9.67 6.75,14.52 7.00,18.25 7.25,18.70 7.50,15.26 7.75,9.69 8.00,5.50 8.25,5.87 8.50,10.98 8.75,17.06 9.00,18.82 9.25,14.15 9.50,7.20 9.75,5.30 10.00,11.13 10.25,18.14 10.50,17.16 10.75,8.89 11.00,5.18 11.25,12.32 11.50,18.98 11.75,13.09 12.00,5.10 12.25,11.10 12.50,19.00 12.75,10.99 13.00,5.50 13.25,16.43 13.50,15.42 13.75,5.01 14.00,15.16 14.25,15.32 14.50,5.13 14.75,17.79 15.00,10.13 15.25,9.67 15.50,17.27 15.75,5.32 16.00,19.00 16.25,5.15 16.50,18.70 16.75,5.24 17.00,18.95 17.25,5.09 17.50,17.91 17.75,8.87 18.00,10.48 18.25,18.06 18.50,5.71 18.75,11.84 19.00,18.79 19.25,9.62 19.50,5.26 19.75,12.08 20.00,18.34 20.25,18.19 20.50,14.49 20.75,11.00 21.00,9.09 21.25,8.73 21.50,9.89 21.75,12.85 22.00,17.05" fill="none" stroke="black" stroke-width="1.5" stroke-linecap="round" stroke-linejoin="round"/>
</svg>
