<svg xmlns="http://www.w3.org/2000/svg" viewBox="0 0 24 24" width="24" height="24">
  <polyline points="2.00,12.00 2.25,11.95 2.50,11.78 2.75,11.51 3.00,11.12 3.25,10.63 3.50,10.05 3.75,9.37 4.00,8.63 4.25,7.84 4.50,7.05 4.75,6.30 5.00,5.67 5.25,5.21 5.50,5.00 5.75,5.13 6.00,5.67 6.25,6.64 6.50,8.07 6.75,9.89 7.00,12.00 7.25,14.22 7.50,16.29 7.75,17.94 8.00,18.88 8.25,18.87 8.50,17.79 8.75,15.70 9.00,12.88 9.25,9.78 9.50,7.05 9.75,5.33 10.00,5.12 10.25,6.64 10.50,9.63 10.75,13.37 11.00,16.79 11.25,18.79 11.50,18.59 11.75,16.07 12.00,12.00 12.25,7.84 12.50,5.28 12.75,5.51 13.00,8.63 13.25,13.37 13.50,17.53 13.75,18.98 14.00,16.79 14.25,11.95 14.50,7.05 14.75,5.00 15.00,7.21 15.25,12.49 15.50,17.53 15.75,18.87 16.00,15.37 16.25,9.37 16.50,5.28 16.75,6.37 17.00,12.00 17.25,17.70 17.50,18.59 17.75,13.69 18.00,7.21 18.25,5.13 18.50,9.63 18.75,16.50 19.00,18.88 19.25,14.11 19.50,7.05 19.75,5.36 20.00,11.12 20.25,17.94 20.50,17.79 20.75,10.63 21.00,5.12 21.25,8.30 21.50,16.29 21.75,18.64 22.00,12.00" fill="none" stroke="black" stroke-width="1.5" stroke-linecap="round" stroke-linejoin="round"/>
</svg>
