<svg xmlns="http://www.w3.org/2000/svg" viewBox="0 0 24 24" width="24" height="24">
  <polyline points="2.00,12.00 2.50,10.75 3.00,9.53 3.50,8.37 4.00,7.30 4.50,6.34 5.00,5.53 5.50,4.87 6.00,4.39 6.50,4.10 7.00,4.00 7.50,4.10 8.00,4.39 8.50,4.87 9.00,5.53 9.50,6.34 10.00,7.30 10.50,8.37 11.00,9.53 11.50,10.75 12.00,12.00 12.50,13.25 13.00,14.47 13.50,15.63 14.00,16.70 14.50,17.66 15.00,18.47 15.50,19.13 16.00,19.61 16.50,19.90 17.00,20.00 17.50,19.90 18.00,19.61 18.50,19.13 19.00,18.47 19.50,17.66 20.00,16.70 20.50,15.63 21.00,14.47 21.50,13.25 22.00,12.00" fill="none" stroke="black" stroke-width="1.5" stroke-linecap="round" stroke-linejoin="round"/>
</svg>
