<svg xmlns="http://www.w3.org/2000/svg" viewBox="0 0 24 24" width="24" height="24">
  <polyline points="2.00,12.00 2.25,10.29 2.50,8.65 2.75,7.18 3.00,5.94 3.25,4.98 3.50,4.35 3.75,4.09 4.00,4.20 4.25,4.67 4.50,5.48 4.75,6.58 5.00,7.94 5.25,9.46 5.50,11.10 5.75,12.75 6.00,14.35 6.25,15.82 6.50,17.09 6.75,18.11 7.00,18.83 7.25,19.22 7.50,19.26 7.75,18.96 8.00,18.35 8.25,17.45 8.50,16.32 8.75,15.01 9.00,13.59 9.25,12.13 9.50,10.70 9.75,9.37 10.00,8.20 10.25,7.23 10.50,6.52 10.75,6.08 11.00,5.94 11.25,6.08 11.50,6.49 11.75,7.14 12.00,8.00 12.25,9.01 12.50,10.12 12.75,11.27 13.00,12.41 13.25,13.47 13.50,14.42 13.75,15.21 14.00,15.80 14.25,16.19 14.50,16.36 14.75,16.31 15.00,16.06 15.25,15.64 15.50,15.07 15.75,14.39 16.00,13.65 16.25,12.88 16.50,12.13 16.75,11.44 17.00,10.83 17.25,10.33 17.50,9.97 17.75,9.74 18.00,9.65 18.25,9.69 18.50,9.84 18.75,10.09 19.00,10.41 19.25,10.76 19.50,11.13 19.75,11.49 20.00,11.80 20.25,12.06 20.50,12.26 20.75,12.37 21.00,12.41 21.25,12.38 21.50,12.29 21.75,12.15 22.00,12.00" fill="none" stroke="black" stroke-width="1.5" stroke-linecap="round" stroke-linejoin="round"/>
</svg>
